<mxfile host="app.diagrams.net" modified="2023-05-26T11:52:36.514Z" agent="Mozilla/5.0 (Windows NT 10.0; Win64; x64) AppleWebKit/537.36 (KHTML, like Gecko) Chrome/113.0.0.0 Safari/537.36" etag="VnH_mILnesVnwlJEnbDs" version="21.3.4" type="device">
  <diagram name="Strona-1" id="tIpZZ9f31VDsTR0sXd5F">
    <mxGraphModel dx="1674" dy="768" grid="1" gridSize="10" guides="1" tooltips="1" connect="1" arrows="1" fold="1" page="1" pageScale="1" pageWidth="827" pageHeight="1169" math="0" shadow="0">
      <root>
        <mxCell id="0" />
        <mxCell id="1" parent="0" />
        <mxCell id="WOqUhGf0ipD8rjv8Gjpe-1" value="" style="ellipse;html=1;shape=startState;fillColor=#000000;strokeColor=#ff0000;" vertex="1" parent="1">
          <mxGeometry x="384" y="10" width="30" height="30" as="geometry" />
        </mxCell>
        <mxCell id="WOqUhGf0ipD8rjv8Gjpe-2" value="" style="edgeStyle=orthogonalEdgeStyle;html=1;verticalAlign=bottom;endArrow=open;endSize=8;strokeColor=#ff0000;rounded=0;entryX=0.5;entryY=0;entryDx=0;entryDy=0;" edge="1" source="WOqUhGf0ipD8rjv8Gjpe-1" parent="1" target="WOqUhGf0ipD8rjv8Gjpe-3">
          <mxGeometry relative="1" as="geometry">
            <mxPoint x="399" y="100" as="targetPoint" />
          </mxGeometry>
        </mxCell>
        <mxCell id="WOqUhGf0ipD8rjv8Gjpe-3" value="Nowo kupiony samochód" style="rounded=1;whiteSpace=wrap;html=1;arcSize=40;fontColor=#000000;fillColor=#ffffc0;strokeColor=#ff0000;" vertex="1" parent="1">
          <mxGeometry x="339" y="100" width="120" height="40" as="geometry" />
        </mxCell>
        <mxCell id="WOqUhGf0ipD8rjv8Gjpe-4" value="" style="edgeStyle=orthogonalEdgeStyle;html=1;verticalAlign=bottom;endArrow=open;endSize=8;strokeColor=#ff0000;rounded=0;" edge="1" source="WOqUhGf0ipD8rjv8Gjpe-3" parent="1">
          <mxGeometry relative="1" as="geometry">
            <mxPoint x="400" y="180" as="targetPoint" />
          </mxGeometry>
        </mxCell>
        <mxCell id="WOqUhGf0ipD8rjv8Gjpe-5" value="Naprawiony" style="rounded=1;whiteSpace=wrap;html=1;arcSize=40;fontColor=#000000;fillColor=#ffffc0;strokeColor=#ff0000;" vertex="1" parent="1">
          <mxGeometry x="500" y="180" width="120" height="40" as="geometry" />
        </mxCell>
        <mxCell id="WOqUhGf0ipD8rjv8Gjpe-6" value="" style="edgeStyle=orthogonalEdgeStyle;html=1;verticalAlign=bottom;endArrow=open;endSize=8;strokeColor=#ff0000;rounded=0;entryX=0.75;entryY=0.5;entryDx=0;entryDy=0;entryPerimeter=0;" edge="1" source="WOqUhGf0ipD8rjv8Gjpe-5" parent="1" target="WOqUhGf0ipD8rjv8Gjpe-11">
          <mxGeometry relative="1" as="geometry">
            <mxPoint x="320" y="510" as="targetPoint" />
          </mxGeometry>
        </mxCell>
        <mxCell id="WOqUhGf0ipD8rjv8Gjpe-7" value="Wymaga naprawy" style="rhombus;whiteSpace=wrap;html=1;fontColor=#000000;fillColor=#ffffc0;strokeColor=#ff0000;" vertex="1" parent="1">
          <mxGeometry x="360" y="180" width="80" height="40" as="geometry" />
        </mxCell>
        <mxCell id="WOqUhGf0ipD8rjv8Gjpe-8" value="Tak" style="edgeStyle=orthogonalEdgeStyle;html=1;align=left;verticalAlign=bottom;endArrow=open;endSize=8;strokeColor=#ff0000;rounded=0;entryX=0;entryY=0.5;entryDx=0;entryDy=0;" edge="1" source="WOqUhGf0ipD8rjv8Gjpe-7" parent="1" target="WOqUhGf0ipD8rjv8Gjpe-5">
          <mxGeometry x="-1" relative="1" as="geometry">
            <mxPoint x="540" y="200" as="targetPoint" />
          </mxGeometry>
        </mxCell>
        <mxCell id="WOqUhGf0ipD8rjv8Gjpe-9" value="Nie" style="edgeStyle=orthogonalEdgeStyle;html=1;align=left;verticalAlign=top;endArrow=open;endSize=8;strokeColor=#ff0000;rounded=0;entryX=0.25;entryY=0.5;entryDx=0;entryDy=0;entryPerimeter=0;" edge="1" source="WOqUhGf0ipD8rjv8Gjpe-7" parent="1" target="WOqUhGf0ipD8rjv8Gjpe-11">
          <mxGeometry x="-1" relative="1" as="geometry">
            <mxPoint x="400" y="280" as="targetPoint" />
          </mxGeometry>
        </mxCell>
        <mxCell id="WOqUhGf0ipD8rjv8Gjpe-11" value="" style="shape=line;html=1;strokeWidth=6;strokeColor=#ff0000;" vertex="1" parent="1">
          <mxGeometry x="300" y="290" width="200" height="10" as="geometry" />
        </mxCell>
        <mxCell id="WOqUhGf0ipD8rjv8Gjpe-12" value="" style="edgeStyle=orthogonalEdgeStyle;html=1;verticalAlign=bottom;endArrow=open;endSize=8;strokeColor=#ff0000;rounded=0;entryX=0.5;entryY=0;entryDx=0;entryDy=0;" edge="1" source="WOqUhGf0ipD8rjv8Gjpe-11" parent="1" target="WOqUhGf0ipD8rjv8Gjpe-13">
          <mxGeometry relative="1" as="geometry">
            <mxPoint x="484" y="370" as="targetPoint" />
          </mxGeometry>
        </mxCell>
        <mxCell id="WOqUhGf0ipD8rjv8Gjpe-13" value="Na sprzedaż" style="rounded=1;whiteSpace=wrap;html=1;arcSize=40;fontColor=#000000;fillColor=#ffffc0;strokeColor=#ff0000;" vertex="1" parent="1">
          <mxGeometry x="340" y="370" width="120" height="40" as="geometry" />
        </mxCell>
        <mxCell id="WOqUhGf0ipD8rjv8Gjpe-14" value="" style="edgeStyle=orthogonalEdgeStyle;html=1;verticalAlign=bottom;endArrow=open;endSize=8;strokeColor=#ff0000;rounded=0;entryX=0.5;entryY=0;entryDx=0;entryDy=0;" edge="1" source="WOqUhGf0ipD8rjv8Gjpe-13" parent="1" target="WOqUhGf0ipD8rjv8Gjpe-15">
          <mxGeometry relative="1" as="geometry">
            <mxPoint x="484" y="490" as="targetPoint" />
          </mxGeometry>
        </mxCell>
        <mxCell id="WOqUhGf0ipD8rjv8Gjpe-15" value="Zarezerwowany" style="rounded=1;whiteSpace=wrap;html=1;arcSize=40;fontColor=#000000;fillColor=#ffffc0;strokeColor=#ff0000;" vertex="1" parent="1">
          <mxGeometry x="340" y="470" width="120" height="40" as="geometry" />
        </mxCell>
        <mxCell id="WOqUhGf0ipD8rjv8Gjpe-16" value="" style="edgeStyle=orthogonalEdgeStyle;html=1;verticalAlign=bottom;endArrow=open;endSize=8;strokeColor=#ff0000;rounded=0;entryX=0.5;entryY=0;entryDx=0;entryDy=0;" edge="1" source="WOqUhGf0ipD8rjv8Gjpe-15" parent="1" target="WOqUhGf0ipD8rjv8Gjpe-17">
          <mxGeometry relative="1" as="geometry">
            <mxPoint x="399" y="570" as="targetPoint" />
          </mxGeometry>
        </mxCell>
        <mxCell id="WOqUhGf0ipD8rjv8Gjpe-17" value="Przygotowany do sprzedaży" style="rounded=1;whiteSpace=wrap;html=1;arcSize=40;fontColor=#000000;fillColor=#ffffc0;strokeColor=#ff0000;" vertex="1" parent="1">
          <mxGeometry x="340" y="560" width="120" height="40" as="geometry" />
        </mxCell>
        <mxCell id="WOqUhGf0ipD8rjv8Gjpe-18" value="" style="edgeStyle=orthogonalEdgeStyle;html=1;verticalAlign=bottom;endArrow=open;endSize=8;strokeColor=#ff0000;rounded=0;entryX=0.5;entryY=0;entryDx=0;entryDy=0;" edge="1" source="WOqUhGf0ipD8rjv8Gjpe-17" parent="1" target="WOqUhGf0ipD8rjv8Gjpe-19">
          <mxGeometry relative="1" as="geometry">
            <mxPoint x="400" y="685" as="targetPoint" />
          </mxGeometry>
        </mxCell>
        <mxCell id="WOqUhGf0ipD8rjv8Gjpe-19" value="Sprzedany" style="ellipse;html=1;shape=endState;fillColor=#000000;strokeColor=#ff0000;" vertex="1" parent="1">
          <mxGeometry x="384" y="660" width="30" height="30" as="geometry" />
        </mxCell>
      </root>
    </mxGraphModel>
  </diagram>
</mxfile>
